name C:\Users\u0101727\Documents\MyRepositories\upper-imu-dc\Results\main_mocap_tracking\Case_10\FLX01_angularVelocities_bodyFrame.mot
datacolumns 4
datarows 70
range 5.01000000 5.70000000
endheader 
time	radius_imu_x	radius_imu_y	radius_imu_z	
          5.01000000	          1.32678858	         -0.10024257	          0.49545506	
          5.02000000	          1.29553468	          0.01600827	          0.50420010	
          5.03000000	          1.26093216	          0.16616526	          0.51396674	
          5.04000000	          1.22358078	          0.33610081	          0.52513564	
          5.05000000	          1.18557724	          0.49600649	          0.53861319	
          5.06000000	          1.14975667	          0.61205792	          0.55535711	
          5.07000000	          1.11862069	          0.66010719	          0.57591565	
          5.08000000	          1.09350835	          0.63449458	          0.60020845	
          5.09000000	          1.07438129	          0.54809445	          0.62761967	
          5.10000000	          1.06020608	          0.42492029	          0.65729800	
          5.11000000	          1.04957500	          0.29062671	          0.68847543	
          5.12000000	          1.04113567	          0.16649779	          0.72066153	
          5.13000000	          1.03365568	          0.06884241	          0.75370279	
          5.14000000	          1.02597579	          0.01031137	          0.78783364	
          5.15000000	          1.01726232	         -0.00205526	          0.82382899	
          5.16000000	          1.00759153	          0.02750793	          0.86316560	
          5.17000000	          0.99836955	          0.07986409	          0.90792937	
          5.18000000	          0.99202989	          0.12550049	          0.96030346	
          5.19000000	          0.99098947	          0.13682133	          1.02180285	
          5.20000000	          0.99641652	          0.10139278	          1.09265766	
          5.21000000	          1.00741266	          0.02927279	          1.17165744	
          5.22000000	          1.02087531	         -0.04815176	          1.25649090	
          5.23000000	          1.03202539	         -0.08690568	          1.34441610	
          5.24000000	          1.03547183	         -0.04424355	          1.43303169	
          5.25000000	          1.02655803	          0.10650195	          1.52089765	
          5.26000000	          1.00253809	          0.36581113	          1.60775068	
          5.27000000	          0.96312312	          0.70730297	          1.69418796	
          5.28000000	          0.91027247	          1.08634402	          1.78096308	
          5.29000000	          0.84747828	          1.45342117	          1.86823894	
          5.30000000	          0.77892022	          1.76685888	          1.95512797	
          5.31000000	          0.70880155	          2.00081171	          2.03967394	
          5.32000000	          0.64099795	          2.14699640	          2.11919761	
          5.33000000	          0.57893607	          2.21142602	          2.19076689	
          5.34000000	          0.52551917	          2.20885883	          2.25155742	
          5.35000000	          0.48297585	          2.15749654	          2.29899874	
          5.36000000	          0.45264323	          2.07533621	          2.33074561	
          5.37000000	          0.43481048	          1.97822639	          2.34459032	
          5.38000000	          0.42874470	          1.87897245	          2.33841567	
          5.39000000	          0.43291114	          1.78684237	          2.31024883	
          5.40000000	          0.44535928	          1.70697213	          2.25839899	
          5.41000000	          0.46416784	          1.63941232	          2.18170957	
          5.42000000	          0.48792224	          1.57839827	          2.07979561	
          5.43000000	          0.51604282	          1.51268979	          1.95321253	
          5.44000000	          0.54882820	          1.42758847	          1.80353635	
          5.45000000	          0.58727099	          1.30811971	          1.63325806	
          5.46000000	          0.63270474	          1.14268702	          1.44555533	
          5.47000000	          0.68647372	          0.92515706	          1.24408866	
          5.48000000	          0.75033372	          0.65777842	          1.03291964	
          5.49000000	          0.82338464	          0.34572114	          0.81507701	
          5.50000000	          0.90376464	         -0.00289121	          0.59671517	
          5.51000000	          1.00143805	         -0.36451547	          0.37858469	
          5.52000000	          1.10561909	         -0.74116965	          0.16217006	
          5.53000000	          1.20885063	         -1.12838429	         -0.05057491	
          5.54000000	          1.32271031	         -1.49101538	         -0.25159760	
          5.55000000	          1.43311141	         -1.84041462	         -0.44380882	
          5.56000000	          1.53289882	         -2.15760399	         -0.62957465	
          5.57000000	          1.61933046	         -2.41912804	         -0.80626599	
          5.58000000	          1.68554624	         -2.65149193	         -0.96956802	
          5.59000000	          1.73210322	         -2.85365425	         -1.11334957	
          5.60000000	          1.76049835	         -3.00932736	         -1.23471281	
          5.61000000	          1.77077633	         -3.12501189	         -1.33250693	
          5.62000000	          1.76388984	         -3.21831602	         -1.40668911	
          5.63000000	          1.74160864	         -3.32914600	         -1.45818584	
          5.64000000	          1.71681946	         -3.40241001	         -1.49300091	
          5.65000000	          1.69729581	         -3.37606325	         -1.52383814	
          5.66000000	          1.67715157	         -3.34273152	         -1.54460990	
          5.67000000	          1.65378480	         -3.34128799	         -1.55214463	
          5.68000000	          1.62880555	         -3.32150863	         -1.54977646	
          5.69000000	          1.60251355	         -3.26356657	         -1.53887897	
          5.70000000	          1.57459573	         -3.14487234	         -1.52063662	
